<svg xmlns="http://www.w3.org/2000/svg" viewBox="0 0 71.197 98.824"><defs><style>.a,.b{fill:#fff;}.a,.c{stroke:#22cb67;stroke-width:2px;}.c,.e{fill:none;}.d,.f{stroke:none;}.f{fill:#22cb67;}</style></defs><g transform="translate(-926.001 -410.001)"><g class="a" transform="translate(926 416.376)"><rect class="d" width="71.196" height="92.449" rx="9"/><rect class="e" x="1" y="1" width="69.196" height="90.449" rx="8"/></g><g class="b" transform="translate(950.451 410.001)"><path class="d" d="M 11.71679306030273 12.26513290405273 C 6.93768835067749 12.26513290405273 2.918927669525146 12.26139068603516 1.090943098068237 12.25580215454102 C 1.287863254547119 11.1307430267334 1.806769847869873 9.955514907836914 2.599952697753906 8.861242294311523 C 3.666492700576782 7.389832496643066 5.187062740325928 6.127082347869873 6.881552696228027 5.30559253692627 L 7.344382762908936 5.081212520599365 L 7.431022644042969 4.574212551116943 C 7.784893035888672 2.503462553024292 9.570893287658691 1.000492453575134 11.67773246765137 1.000492453575134 C 13.78635311126709 1.000492453575134 15.57487297058105 2.503772497177124 15.93043327331543 4.574962615966797 L 16.01749229431152 5.082112312316895 L 16.48077201843262 5.30607271194458 C 18.18085289001465 6.127952575683594 19.70693206787109 7.390962600708008 20.77789306640625 8.862442970275879 C 21.57438278198242 9.956802368164063 22.09548950195313 11.13158321380615 22.29333305358887 12.25586986541748 C 20.4711742401123 12.26141929626465 16.47206497192383 12.26513290405273 11.71679306030273 12.26513290405273 Z"/><path class="f" d="M 11.71679306030273 11.26513290405273 C 15.53130531311035 11.26513290405273 18.87301635742188 11.26273822784424 20.98033332824707 11.25893211364746 C 20.20207595825195 9.268229484558105 18.36160469055176 7.326067447662354 16.04552268981934 6.206392288208008 L 15.11897277832031 5.758462429046631 L 14.94485282897949 4.744152545928955 C 14.6719331741333 3.154372453689575 13.29791259765625 2.000492572784424 11.67773246765137 2.000492572784424 C 10.05971240997314 2.000492572784424 8.688262939453125 3.153742551803589 8.416732788085938 4.74266242980957 L 8.243453025817871 5.756662368774414 L 7.317782878875732 6.205422401428223 C 5.010452747344971 7.324015140533447 3.177088499069214 9.266636848449707 2.402288436889648 11.25887584686279 C 4.517890930175781 11.26271438598633 7.879025459289551 11.26513290405273 11.71679306030273 11.26513290405273 M 11.71679306030273 13.26513290405273 C 5.912112712860107 13.26513290405273 0.09961280971765518 13.25928211212158 0.001952812541276217 13.24853229522705 C 0.001952812541276217 9.921382904052734 2.623042821884155 6.258792400360107 6.445312976837158 4.405762672424316 C 6.873042583465576 1.902832508087158 9.052732467651367 0.0004925000248476863 11.67773246765137 0.0004925000248476863 C 14.30273246765137 0.0004925000248476863 16.48633193969727 1.902832508087158 16.91601371765137 4.405762672424316 C 20.74804306030273 6.258302688598633 23.3828125 9.920902252197266 23.3828125 13.24853229522705 C 23.31640243530273 13.25928211212158 17.51953315734863 13.26513290405273 11.71679306030273 13.26513290405273 Z"/></g><path class="c" d="M-19567.531-4869.538l13.711,13.712,24.6-27.79" transform="translate(20511.098 5334)"/></g></svg>