<svg id="Layer_1" data-name="Layer 1" xmlns="http://www.w3.org/2000/svg" xmlns:xlink="http://www.w3.org/1999/xlink" viewBox="0 0 1054.22 555.68"><defs><style>.cls-1,.cls-3{fill:none;}.cls-2{fill:#eaeaea;}.cls-12,.cls-3{stroke:#fff;stroke-miterlimit:10;stroke-width:4px;}.cls-3{stroke-linecap:round;}.cls-4{fill:#231f20;}.cls-5{clip-path:url(#clip-path);}.cls-6{fill:#010101;}.cls-12,.cls-7{fill:#004a98;}.cls-13,.cls-8{fill:#fff;}.cls-9{clip-path:url(#clip-path-3);}.cls-10{clip-path:url(#clip-path-5);}.cls-11{fill:#ededed;}.cls-13{font-size:30.93px;font-family:AvenirNextW1G-Light, Avenir Next W1G;font-weight:300;}</style><clipPath id="clip-path"><rect class="cls-1" x="202.93" y="175.81" width="25.09" height="6.34"/></clipPath><clipPath id="clip-path-3"><rect class="cls-1" x="534.37" y="176.86" width="25.09" height="6.34"/></clipPath><clipPath id="clip-path-5"><rect class="cls-1" x="644.85" y="176.86" width="25.09" height="6.34"/></clipPath></defs><title>installation-illustration</title><path d="M882.09,525.44H584.79a6.24,6.24,0,0,1-6.23-6.23V305.66a6.24,6.24,0,0,1,6.23-6.24h297.3a6.25,6.25,0,0,1,6.24,6.24V519.21A6.25,6.25,0,0,1,882.09,525.44ZM584.79,303a2.68,2.68,0,0,0-2.67,2.68V519.21a2.68,2.68,0,0,0,2.67,2.67h297.3a2.68,2.68,0,0,0,2.68-2.67V305.66a2.68,2.68,0,0,0-2.68-2.68Z"/><path d="M934.81,256.32H636.62a6.25,6.25,0,0,1-6.24-6.24V36.53a6.25,6.25,0,0,1,6.24-6.24H934.81a6.25,6.25,0,0,1,6.24,6.24V250.08A6.25,6.25,0,0,1,934.81,256.32ZM636.62,33.86A2.67,2.67,0,0,0,634,36.53V250.08a2.67,2.67,0,0,0,2.67,2.67H934.81a2.68,2.68,0,0,0,2.67-2.67V36.53a2.68,2.68,0,0,0-2.67-2.67Z"/><path d="M516.86,168a40.74,40.74,0,0,1-20.42-5c-4.87-2.76-7.76-5.94-10.55-9a41.15,41.15,0,0,0-9.61-8.44c-7-4.24-15.44-6.12-25.21-5.58a1.78,1.78,0,0,1-.2-3.56c10.51-.57,19.68,1.47,27.27,6.1a44.33,44.33,0,0,1,10.39,9.09c2.72,3,5.29,5.83,9.67,8.32,7.08,4,16,5.35,26.39,4a1.78,1.78,0,0,1,.48,3.53A62,62,0,0,1,516.86,168Z"/><path d="M446.52,132h6.26a3.33,3.33,0,0,1,3.33,3.33v8.85a0,0,0,0,1,0,0H443.19a0,0,0,0,1,0,0v-8.85a3.33,3.33,0,0,1,3.33-3.33Z" transform="translate(594.95 -309.25) rotate(90.92)"/><path d="M445,141.39h0l-7.42-.12a.89.89,0,0,1-.88-.9.92.92,0,0,1,.91-.88l7.42.12a.89.89,0,0,1,0,1.78Z"/><path d="M445.08,136.49h0l-7.42-.12a.88.88,0,0,1-.88-.9.89.89,0,0,1,.89-.88h0l7.43.12a.89.89,0,1,1,0,1.78Z"/><rect class="cls-2" x="382.62" y="123.87" width="26.31" height="50.02" rx="1.25"/><path d="M407.53,174.79H384.42a3.38,3.38,0,0,1-3.37-3.37V125.74a3.38,3.38,0,0,1,3.37-3.37h23.11a3.37,3.37,0,0,1,3.37,3.37v45.68A3.37,3.37,0,0,1,407.53,174.79Zm-23.11-50a.9.9,0,0,0-.9.91v45.68a.9.9,0,0,0,.9.91h23.11a.91.91,0,0,0,.91-.91V125.74a.91.91,0,0,0-.91-.91Z"/><line class="cls-3" x1="405.96" y1="126.65" x2="385.32" y2="126.65"/><line class="cls-3" x1="385.32" y1="126.65" x2="385.32" y2="170.3"/><path d="M392.92,138.29a.93.93,0,0,1-.93-.92v-4a.93.93,0,0,1,1.85,0v4A.92.92,0,0,1,392.92,138.29Z"/><path d="M399,138.29a.92.92,0,0,1-.92-.92v-4a.92.92,0,1,1,1.84,0v4A.92.92,0,0,1,399,138.29Z"/><path d="M395.22,141.64h1.72a.13.13,0,0,1,.13.13V143a.89.89,0,0,1-.89.89H396a.89.89,0,0,1-.89-.89v-1.21A.13.13,0,0,1,395.22,141.64Z" transform="translate(792.15 285.51) rotate(180)"/><path d="M400.57,146.59h-9.18a4.2,4.2,0,0,1-4.19-4.19V133a4.2,4.2,0,0,1,4.19-4.19h9.18a4.2,4.2,0,0,1,4.19,4.19v9.43A4.2,4.2,0,0,1,400.57,146.59ZM391.39,130a3,3,0,0,0-3,3v9.43a3,3,0,0,0,3,3h9.18a3,3,0,0,0,3-3V133a3,3,0,0,0-3-3Z"/><path d="M392.92,160.08a.93.93,0,0,1-.93-.92v-4a.93.93,0,0,1,1.85,0v4A.92.92,0,0,1,392.92,160.08Z"/><path d="M399,160.08a.92.92,0,0,1-.92-.92v-4a.92.92,0,1,1,1.84,0v4A.92.92,0,0,1,399,160.08Z"/><path d="M395.22,163.43h1.72a.13.13,0,0,1,.13.13v1.21a.89.89,0,0,1-.89.89H396a.89.89,0,0,1-.89-.89v-1.21a.13.13,0,0,1,.13-.13Z" transform="translate(792.15 329.09) rotate(-180)"/><path d="M400.57,168.38h-9.18a4.19,4.19,0,0,1-4.19-4.18v-9.44a4.2,4.2,0,0,1,4.19-4.19h9.18a4.2,4.2,0,0,1,4.19,4.19v9.44A4.19,4.19,0,0,1,400.57,168.38Zm-9.18-16.58a3,3,0,0,0-3,3v9.44a3,3,0,0,0,3,3h9.18a3,3,0,0,0,3-3v-9.44a3,3,0,0,0-3-3Z"/><rect class="cls-2" x="177.47" y="113.5" width="76.02" height="76.02" rx="3.48"/><path class="cls-4" d="M250,191H180.94a5,5,0,0,1-5-5V117a5,5,0,0,1,5-5H250a5,5,0,0,1,5,5V186A5,5,0,0,1,250,191Zm-69.06-76a2,2,0,0,0-2,2V186a2,2,0,0,0,2,2H250a2,2,0,0,0,2-2V117a2,2,0,0,0-2-2Z"/><g class="cls-5"><g class="cls-5"><path class="cls-6" d="M203.51,180.62c.09-.31.15-.56.19-.76a2.23,2.23,0,0,0,1,.27,1.27,1.27,0,0,0,.39-.06.87.87,0,0,0,.32-.16.57.57,0,0,0,.16-.23.4.4,0,0,0,0-.18.54.54,0,0,0-.13-.23,6.84,6.84,0,0,0-.46-.54l-.21-.26a1.33,1.33,0,0,1-.19-.3.91.91,0,0,1,0-.27.79.79,0,0,1,.06-.29,1.29,1.29,0,0,1,.34-.53,1.71,1.71,0,0,1,.63-.38,2.52,2.52,0,0,1,.87-.14,5,5,0,0,1,1,.11q-.09.32-.18.72a2.19,2.19,0,0,0-.84-.18,1.09,1.09,0,0,0-.55.13.54.54,0,0,0-.3.3.18.18,0,0,0,0,.1.42.42,0,0,0,.14.33c.09.11.18.22.28.32a3.1,3.1,0,0,1,.54.71.49.49,0,0,1,.07.19,1.15,1.15,0,0,1,0,.19,1.94,1.94,0,0,1,0,.2,1.47,1.47,0,0,1-.28.48,1.73,1.73,0,0,1-.48.36,1.94,1.94,0,0,1-.57.2,2.88,2.88,0,0,1-.59.05l-.46,0q-.25,0-.66-.12"/><path class="cls-6" d="M206.3,181.56c.23-.54.52-1.24.86-2.11s.6-1.57.78-2.11c.42-.06.74-.11,1-.13s.44,0,.66,0a2.37,2.37,0,0,1,.74.1.77.77,0,0,1,.47.31,1,1,0,0,1,.14.51,1.91,1.91,0,0,1-.11.6,2.76,2.76,0,0,1-.31.62,2.65,2.65,0,0,1-.48.53,2,2,0,0,1-.58.34,1.88,1.88,0,0,1-.62.11,1.34,1.34,0,0,1-.35-.05.91.91,0,0,1-.28-.1A.7.7,0,0,1,208,180a1.7,1.7,0,0,1-.15-.21l-.48,1.27-.07.2s-.05.12-.11.29h-.9Zm2.33-3.68c0,.11-.09.2-.13.27l-.12.33a3,3,0,0,0-.12.31,1.51,1.51,0,0,0-.08.34.51.51,0,0,0,.06.3.45.45,0,0,0,.2.21.78.78,0,0,0,.31.07,1,1,0,0,0,.48-.13,1.35,1.35,0,0,0,.43-.37,1.91,1.91,0,0,0,.29-.52,1.09,1.09,0,0,0,.05-.52.46.46,0,0,0-.21-.31.86.86,0,0,0-.41-.09,3.16,3.16,0,0,0-.75.11"/><path class="cls-6" d="M211.93,177.89a2.79,2.79,0,0,0,.15-.29l.13-.25a7.72,7.72,0,0,1,.8-.13,4.78,4.78,0,0,1,.64,0,2.25,2.25,0,0,1,.61.08.64.64,0,0,1,.37.23.56.56,0,0,1,0,.48c0,.11-.15.39-.34.84l-.54,1.41h-.88c.1-.23.22-.5.34-.81l.29-.73-.22.1-.16.06-.3.07-.35.09a1.34,1.34,0,0,0-.24.09.75.75,0,0,0-.2.1.92.92,0,0,0-.14.13.39.39,0,0,0-.08.14.25.25,0,0,0,0,.21.24.24,0,0,0,.15.13,1,1,0,0,0,.27,0h.22l.32-.08c-.08.12-.19.28-.32.5l-.37,0h-.25a1.7,1.7,0,0,1-.62-.1.5.5,0,0,1-.27-.32.83.83,0,0,1,0-.44.94.94,0,0,1,.13-.24,1.2,1.2,0,0,1,.22-.23,2,2,0,0,1,.3-.2,3.09,3.09,0,0,1,.48-.18c.21-.06.47-.12.79-.18l.27-.06.22-.06a.56.56,0,0,0,.17-.09l.12-.1a.34.34,0,0,0,.06-.12.21.21,0,0,0,0-.19.31.31,0,0,0-.17-.12,1.12,1.12,0,0,0-.27,0,4.69,4.69,0,0,0-1.35.25"/><path class="cls-6" d="M214.37,180.22l.56-1.39.3-.8.18-.5.09-.28h.85l-.16.41.29-.23a.92.92,0,0,1,.24-.13,1.14,1.14,0,0,1,.26-.09,1.27,1.27,0,0,1,.28,0,1,1,0,0,1,.24,0c-.06.18-.13.42-.21.7a1,1,0,0,0-.32-.06,1.27,1.27,0,0,0-.34.05,1.46,1.46,0,0,0-.3.16,1.1,1.1,0,0,0-.27.26,1.28,1.28,0,0,0-.2.31l-.22.52c-.1.25-.18.49-.26.73a2.74,2.74,0,0,0-.11.34h-.9"/><path class="cls-6" d="M219.36,179.61c-.07.11-.17.31-.33.6l-.44.07-.29,0a1.62,1.62,0,0,1-.4-.05.41.41,0,0,1-.25-.14.35.35,0,0,1-.08-.24,1,1,0,0,1,.06-.29l0-.1s.07-.19.16-.42l.49-1.22h-.45l.22-.56h.48c.05-.12.13-.31.23-.58l.39-.06.48-.1c-.1.26-.19.51-.27.74h.79l-.21.56h-.8q-.48,1.2-.54,1.38a.68.68,0,0,0,0,.28.16.16,0,0,0,.09.15.34.34,0,0,0,.18,0H219l.33-.07"/><path class="cls-6" d="M220.77,177.89a1.61,1.61,0,0,0,.15-.29l.13-.25c.31-.06.57-.11.8-.13a4.88,4.88,0,0,1,.64,0,2.2,2.2,0,0,1,.61.08.64.64,0,0,1,.37.23.53.53,0,0,1,0,.48q0,.17-.33.84t-.54,1.41h-.89c.11-.23.22-.5.34-.81l.29-.73-.21.1-.16.06-.31.07-.35.09a1.7,1.7,0,0,0-.24.09l-.2.1-.14.13a.39.39,0,0,0-.08.14.22.22,0,0,0,0,.21.24.24,0,0,0,.15.13.93.93,0,0,0,.26,0h.22l.33-.08a5.42,5.42,0,0,0-.33.5l-.37,0h-.25a1.61,1.61,0,0,1-.61-.1.45.45,0,0,1-.27-.32.74.74,0,0,1,0-.44.71.71,0,0,1,.13-.24,1.15,1.15,0,0,1,.21-.23l.3-.2a2.89,2.89,0,0,1,.49-.18,7.83,7.83,0,0,1,.78-.18,1.47,1.47,0,0,0,.27-.06l.23-.06a.51.51,0,0,0,.16-.09.4.4,0,0,0,.12-.1.34.34,0,0,0,.06-.12.18.18,0,0,0,0-.19.28.28,0,0,0-.17-.12,1.12,1.12,0,0,0-.27,0,4.75,4.75,0,0,0-1.35.25"/><path class="cls-6" d="M223.19,180.22c.2-.44.41-.94.63-1.49s.41-1,.57-1.48h.89l-.21.5.25-.21a1.25,1.25,0,0,1,.24-.15l.28-.11.31-.07a2.07,2.07,0,0,1,.35,0,1.61,1.61,0,0,1,.51.07.56.56,0,0,1,.34.21.45.45,0,0,1,.1.31,1.27,1.27,0,0,1-.07.36l-.1.25-.5,1.28c-.07.17-.14.36-.21.56h-.9c.08-.17.2-.46.37-.88s.27-.7.32-.84a.73.73,0,0,0,0-.37.28.28,0,0,0-.16-.22.74.74,0,0,0-.34-.07,1,1,0,0,0-.37.07,1.33,1.33,0,0,0-.35.19,1.6,1.6,0,0,0-.3.33,3.35,3.35,0,0,0-.34.67c-.12.28-.26.66-.44,1.12h-.91"/><polygon class="cls-7" points="226.11 181.57 207.88 181.57 208.08 180.99 226.32 180.99 226.11 181.57"/></g></g><rect class="cls-4" x="210.92" y="111.18" width="9.11" height="2.32" rx="1.16"/><path class="cls-8" d="M249.44,118.65h-68.6a1.78,1.78,0,1,1,0-3.56h68.6a1.78,1.78,0,0,1,0,3.56Z"/><path class="cls-8" d="M180.84,187.26a1.79,1.79,0,0,1-1.79-1.78V116.87a1.79,1.79,0,0,1,3.57,0v68.61A1.78,1.78,0,0,1,180.84,187.26Z"/><path d="M748.93,185.79a73.49,73.49,0,0,1-22.79-3.51,79.58,79.58,0,0,1-12-5.17c-4-2-7.36-3.73-12.46-4.73-8-1.57-16.67-.58-25.72,2.93a1.78,1.78,0,1,1-1.29-3.32c9.69-3.76,19-4.8,27.7-3.1,5.58,1.09,9.37,3,13.38,5a75.39,75.39,0,0,0,11.51,5,71.29,71.29,0,0,0,26.66,3.18,1.78,1.78,0,1,1,.22,3.56C752.38,185.74,750.64,185.79,748.93,185.79Z"/><path class="cls-8" d="M752.21,186.37a.44.44,0,0,1-.44-.44l-.08-3.65a.45.45,0,0,1,.44-.45l8.55-.18a.46.46,0,0,1,.46.44l.07,3.65a.45.45,0,0,1-.43.46Z"/><path d="M759.82,183l0,1.87-6.77.14,0-1.88,6.77-.13m.87-2.69h0l-8.56.17a1.78,1.78,0,0,0-1.74,1.82l.07,3.65a1.79,1.79,0,0,0,1.78,1.75h0l8.55-.18a1.78,1.78,0,0,0,1.75-1.81l-.08-3.66a1.78,1.78,0,0,0-1.78-1.74Z"/><path d="M292.8,256.32H79.25A6.24,6.24,0,0,1,73,250.08V36.53a6.24,6.24,0,0,1,6.23-6.24H292.8A6.25,6.25,0,0,1,299,36.53V250.08A6.25,6.25,0,0,1,292.8,256.32ZM79.25,33.86a2.68,2.68,0,0,0-2.67,2.67V250.08a2.68,2.68,0,0,0,2.67,2.67H292.8a2.68,2.68,0,0,0,2.68-2.67V36.53a2.68,2.68,0,0,0-2.68-2.67Z"/><rect class="cls-8" x="71.19" y="159.09" width="6.24" height="10.57"/><path d="M567.22,256.32H353.68a6.25,6.25,0,0,1-6.24-6.24V36.53a6.25,6.25,0,0,1,6.24-6.24H567.22a6.25,6.25,0,0,1,6.24,6.24V250.08A6.25,6.25,0,0,1,567.22,256.32ZM353.68,33.86A2.68,2.68,0,0,0,351,36.53V250.08a2.68,2.68,0,0,0,2.68,2.67H567.22a2.68,2.68,0,0,0,2.68-2.67V36.53a2.68,2.68,0,0,0-2.68-2.67Z"/><path d="M116.88,177.14a35.58,35.58,0,0,1-6.56-.6c-5.51-1-9.27-3.1-12.91-5.1a41,41,0,0,0-11.83-4.86c-8-1.75-16.6-.76-25.66,2.93a1.78,1.78,0,1,1-1.34-3.3c9.74-4,19.08-5,27.76-3.11a44.54,44.54,0,0,1,12.78,5.22c3.55,2,6.9,3.79,11.85,4.72,8,1.5,16.83-.13,26.24-4.85a1.78,1.78,0,1,1,1.6,3.19C131.15,175.21,123.8,177.14,116.88,177.14Z"/><path d="M138.66,171.44a.28.28,0,0,1-.26-.17L137,167.91a.28.28,0,0,1,.15-.37l7.86-3.38a.23.23,0,0,1,.11,0,.27.27,0,0,1,.26.17l1.45,3.36a.3.3,0,0,1,0,.21.28.28,0,0,1-.15.16l-7.86,3.37Z"/><path d="M144.44,166l.48,1.12-5.63,2.41-.48-1.12,5.63-2.41m.63-3.38a1.75,1.75,0,0,0-.7.14l-7.86,3.38a1.78,1.78,0,0,0-.93,2.34l1.44,3.36a1.79,1.79,0,0,0,1.64,1.08,1.76,1.76,0,0,0,.7-.15l7.86-3.38a1.78,1.78,0,0,0,.93-2.34l-1.44-3.36a1.79,1.79,0,0,0-1.64-1.07Z"/><path d="M161.77,149H141.86a1.34,1.34,0,0,1,0-2.67h19.91a1.34,1.34,0,1,1,0,2.67Z"/><path d="M161.77,149a1.33,1.33,0,0,1-.94-.39l-7-7a1.34,1.34,0,0,1,1.89-1.89l7,7a1.34,1.34,0,0,1-.95,2.28Z"/><path d="M154.81,155.91a1.33,1.33,0,0,1-.94-.39,1.34,1.34,0,0,1,0-1.89l7-7a1.34,1.34,0,0,1,1.89,1.89l-7,7A1.33,1.33,0,0,1,154.81,155.91Z"/><path d="M772.09,167H752.18a1.34,1.34,0,1,1,0-2.67h19.91a1.34,1.34,0,1,1,0,2.67Z"/><path d="M772.09,167a1.35,1.35,0,0,1-1-.39l-7-7a1.34,1.34,0,1,1,1.89-1.89l7,7a1.34,1.34,0,0,1-.94,2.28Z"/><path d="M765.13,174a1.37,1.37,0,0,1-1-.39,1.34,1.34,0,0,1,0-1.89l7-7a1.34,1.34,0,0,1,1.89,0,1.32,1.32,0,0,1,0,1.89l-7,7A1.33,1.33,0,0,1,765.13,174Z"/><path d="M441.29,119.26h-19.9a1.34,1.34,0,1,1,0-2.68h19.9a1.34,1.34,0,0,1,0,2.68Z"/><path d="M428.35,126.22a1.33,1.33,0,0,1-1-.39l-7-7a1.34,1.34,0,0,1,0-1.89,1.32,1.32,0,0,1,1.89,0l7,7a1.34,1.34,0,0,1,0,1.89A1.33,1.33,0,0,1,428.35,126.22Z"/><path d="M421.39,119.26a1.34,1.34,0,0,1-.95-2.28l7-7a1.32,1.32,0,0,1,1.89,0,1.34,1.34,0,0,1,0,1.89l-7,7A1.33,1.33,0,0,1,421.39,119.26Z"/><rect class="cls-8" x="551.47" y="107.97" width="40.82" height="89.4"/><rect class="cls-2" x="508.91" y="114.55" width="76.02" height="76.02" rx="3.48"/><path class="cls-4" d="M581.45,192.06H512.39a5,5,0,0,1-5-5V118a5,5,0,0,1,5-5h69.06a5,5,0,0,1,5,5v69.06A5,5,0,0,1,581.45,192.06Zm-69.06-76a2,2,0,0,0-2,2v69.06a2,2,0,0,0,2,2h69.06a2,2,0,0,0,2-2V118a2,2,0,0,0-2-2Z"/><g class="cls-9"><g class="cls-9"><path class="cls-6" d="M535,181.67c.09-.31.15-.56.19-.76a2.26,2.26,0,0,0,1,.27,1.34,1.34,0,0,0,.4-.06.82.82,0,0,0,.31-.16.6.6,0,0,0,.17-.23.4.4,0,0,0,0-.18.57.57,0,0,0-.14-.23q-.12-.16-.45-.54c-.1-.12-.18-.21-.21-.26a1.33,1.33,0,0,1-.19-.3A.71.71,0,0,1,536,179a1,1,0,0,1,.05-.29,1.44,1.44,0,0,1,.35-.53,1.67,1.67,0,0,1,.62-.38,2.56,2.56,0,0,1,.87-.14,5.07,5.07,0,0,1,1,.11c-.06.21-.12.45-.19.71a2.1,2.1,0,0,0-.84-.17,1.09,1.09,0,0,0-.55.13.58.58,0,0,0-.3.3.36.36,0,0,0,0,.1.45.45,0,0,0,.14.33l.28.32a3.33,3.33,0,0,1,.55.7.89.89,0,0,1,.06.2.4.4,0,0,1,0,.19.84.84,0,0,1,0,.2,1.31,1.31,0,0,1-.28.48,1.68,1.68,0,0,1-.47.36,2.16,2.16,0,0,1-.57.2,4,4,0,0,1-.6,0l-.46,0q-.25,0-.66-.12"/><path class="cls-6" d="M537.74,182.61c.24-.54.53-1.24.86-2.11s.6-1.57.79-2.11l1-.13.66,0a2.43,2.43,0,0,1,.75.1.75.75,0,0,1,.46.31.93.93,0,0,1,.14.51,1.89,1.89,0,0,1-.1.6,3.26,3.26,0,0,1-.31.62,3.43,3.43,0,0,1-.48.53,2.09,2.09,0,0,1-.59.34,1.83,1.83,0,0,1-.61.11,1.42,1.42,0,0,1-.36,0,1,1,0,0,1-.28-.1.85.85,0,0,1-.17-.14,1,1,0,0,1-.16-.21l-.48,1.27-.07.2-.1.29h-.91Zm2.33-3.68-.12.27-.13.33c-.06.14-.09.24-.12.31a1.47,1.47,0,0,0-.07.34.5.5,0,0,0,0,.3.53.53,0,0,0,.21.21.74.74,0,0,0,.31.07,1,1,0,0,0,.48-.13,1.22,1.22,0,0,0,.42-.37,1.68,1.68,0,0,0,.29-.52,1,1,0,0,0,.06-.52.46.46,0,0,0-.21-.31.87.87,0,0,0-.42-.09,3.16,3.16,0,0,0-.75.11"/><path class="cls-6" d="M543.37,178.94c.08-.13.13-.23.16-.29l.12-.25c.31-.06.58-.11.8-.13a4.93,4.93,0,0,1,.65,0,2.13,2.13,0,0,1,.6.08.65.65,0,0,1,.38.23.54.54,0,0,1,0,.47c0,.12-.15.4-.34.85s-.37.93-.54,1.41h-.89c.11-.23.22-.5.35-.81l.29-.73-.22.1-.16.06-.31.07-.34.09a1.06,1.06,0,0,0-.25.09,1.24,1.24,0,0,0-.2.1.89.89,0,0,0-.14.13.64.64,0,0,0-.08.14.29.29,0,0,0,0,.21.24.24,0,0,0,.15.13,1,1,0,0,0,.26,0h.22l.33-.08-.33.5-.37.05h-.24a1.63,1.63,0,0,1-.62-.1.45.45,0,0,1-.27-.32.83.83,0,0,1,0-.44.94.94,0,0,1,.13-.24,1.15,1.15,0,0,1,.21-.23,2.79,2.79,0,0,1,.31-.2,3.09,3.09,0,0,1,.48-.18,7.83,7.83,0,0,1,.78-.18l.27-.06.23-.06a.51.51,0,0,0,.16-.09.4.4,0,0,0,.12-.1.75.75,0,0,0,.07-.12.21.21,0,0,0,0-.19.28.28,0,0,0-.17-.12,1,1,0,0,0-.27,0,4.75,4.75,0,0,0-1.35.25"/><path class="cls-6" d="M545.81,181.27l.57-1.39.3-.8.18-.5a1.67,1.67,0,0,1,.08-.28h.86l-.16.41.28-.23a1.41,1.41,0,0,1,.24-.13,1.14,1.14,0,0,1,.26-.09l.28,0a1.07,1.07,0,0,1,.25,0c-.06.18-.13.42-.21.7a1,1,0,0,0-.32-.06,1.21,1.21,0,0,0-.34,0,1.3,1.3,0,0,0-.31.16,2.05,2.05,0,0,0-.27.25,1.59,1.59,0,0,0-.19.32,4.48,4.48,0,0,0-.22.52c-.1.25-.19.49-.27.73,0,.09-.07.2-.11.34h-.9"/><path class="cls-6" d="M550.8,180.66l-.33.6a3.7,3.7,0,0,1-.43.07l-.29,0a1.56,1.56,0,0,1-.4,0,.41.41,0,0,1-.26-.14.34.34,0,0,1-.07-.24,1,1,0,0,1,.05-.29l0-.1c0-.05.07-.19.17-.42l.49-1.22h-.46c.05-.12.13-.3.22-.56H550l.24-.58.39-.06.48-.1c-.11.26-.2.51-.28.74h.8c-.11.26-.18.45-.22.56h-.8c-.31.8-.49,1.26-.53,1.38a1,1,0,0,0-.06.28.2.2,0,0,0,.09.15.38.38,0,0,0,.19,0h.17l.32-.07"/><path class="cls-6" d="M552.21,178.94c.08-.13.13-.23.16-.29l.13-.25c.3-.06.57-.11.79-.13a5,5,0,0,1,.65,0,2.25,2.25,0,0,1,.61.08.62.62,0,0,1,.37.23.54.54,0,0,1,0,.47c0,.12-.15.4-.34.85s-.37.93-.54,1.41h-.89c.11-.23.23-.5.35-.81l.29-.73-.22.1-.16.06-.3.07-.35.09a1.06,1.06,0,0,0-.25.09l-.2.1-.14.13a.37.37,0,0,0-.07.14.25.25,0,0,0,0,.21.24.24,0,0,0,.15.13,1,1,0,0,0,.27,0h.21l.33-.08c-.08.12-.19.28-.32.5l-.37.05h-.25a1.66,1.66,0,0,1-.62-.1.45.45,0,0,1-.27-.32.83.83,0,0,1,0-.44.94.94,0,0,1,.13-.24,1,1,0,0,1,.22-.23,2,2,0,0,1,.3-.2,3.09,3.09,0,0,1,.48-.18c.2-.06.47-.12.79-.18l.26-.06.23-.06a.51.51,0,0,0,.16-.09.4.4,0,0,0,.12-.1A.37.37,0,0,0,554,179a.21.21,0,0,0,0-.19.35.35,0,0,0-.17-.12,1.12,1.12,0,0,0-.27,0,4.75,4.75,0,0,0-1.36.25"/><path class="cls-6" d="M554.64,181.27c.2-.44.41-.94.63-1.49s.41-1.05.56-1.48h.9l-.21.5a2,2,0,0,1,.24-.21l.24-.15.28-.11.32-.07a2,2,0,0,1,.35,0,1.7,1.7,0,0,1,.51.07.62.62,0,0,1,.34.21.5.5,0,0,1,.1.31,1.31,1.31,0,0,1-.08.36s-.05.13-.09.25l-.5,1.28c-.07.17-.14.36-.21.56h-.9l.36-.88c.17-.43.27-.7.32-.84a.77.77,0,0,0,.05-.37.32.32,0,0,0-.17-.22.67.67,0,0,0-.33-.07.94.94,0,0,0-.37.07,1.19,1.19,0,0,0-.35.19,1.4,1.4,0,0,0-.31.33,4.13,4.13,0,0,0-.33.67c-.12.28-.27.66-.44,1.12h-.91"/><polygon class="cls-7" points="557.56 182.62 539.32 182.62 539.53 182.04 557.76 182.04 557.56 182.62"/></g></g><rect class="cls-4" x="542.37" y="112.23" width="9.11" height="2.32" rx="1.16"/><path class="cls-8" d="M580.89,119.7H512.28a1.78,1.78,0,1,1,0-3.56h68.61a1.78,1.78,0,0,1,0,3.56Z"/><path class="cls-8" d="M512.28,188.31a1.78,1.78,0,0,1-1.78-1.78V117.92a1.78,1.78,0,1,1,3.56,0v68.61A1.78,1.78,0,0,1,512.28,188.31Z"/><rect class="cls-8" x="619.1" y="107.97" width="40.82" height="89.4"/><rect class="cls-2" x="619.39" y="114.55" width="76.02" height="76.02" rx="3.48"/><path class="cls-4" d="M691.93,192.06H622.87a5,5,0,0,1-5-5V118a5,5,0,0,1,5-5h69.06a5,5,0,0,1,5,5v69.06A5,5,0,0,1,691.93,192.06Zm-69.06-76a2,2,0,0,0-2,2v69.06a2,2,0,0,0,2,2h69.06a2,2,0,0,0,2-2V118a2,2,0,0,0-2-2Z"/><g class="cls-10"><g class="cls-10"><path class="cls-6" d="M645.43,181.67c.09-.31.16-.56.2-.76a2.23,2.23,0,0,0,1,.27,1.32,1.32,0,0,0,.39-.06.82.82,0,0,0,.31-.16.6.6,0,0,0,.17-.23.4.4,0,0,0,0-.18.54.54,0,0,0-.13-.23l-.46-.54-.21-.26a1.33,1.33,0,0,1-.19-.3.71.71,0,0,1,0-.27,1,1,0,0,1,0-.29,1.44,1.44,0,0,1,.35-.53,1.67,1.67,0,0,1,.62-.38,2.58,2.58,0,0,1,.88-.14,5.06,5.06,0,0,1,1,.11c-.06.21-.12.45-.18.71a2.18,2.18,0,0,0-.85-.17,1.12,1.12,0,0,0-.55.13.58.58,0,0,0-.3.3.36.36,0,0,0,0,.1.5.5,0,0,0,.14.33l.28.32a3,3,0,0,1,.55.7,1,1,0,0,1,.07.2.6.6,0,0,1,0,.19.79.79,0,0,1,0,.2,1.5,1.5,0,0,1-.29.48,1.68,1.68,0,0,1-.47.36,2.16,2.16,0,0,1-.57.2,4,4,0,0,1-.6,0l-.46,0q-.26,0-.66-.12"/><path class="cls-6" d="M648.22,182.61c.24-.54.53-1.24.86-2.11s.6-1.57.79-2.11c.42-.06.74-.11,1-.13l.66,0a2.37,2.37,0,0,1,.74.1.72.72,0,0,1,.46.31.93.93,0,0,1,.14.51,1.89,1.89,0,0,1-.1.6,3.26,3.26,0,0,1-.31.62,2.65,2.65,0,0,1-.48.53,2,2,0,0,1-.59.34,1.83,1.83,0,0,1-.61.11,1.29,1.29,0,0,1-.35,0,.82.82,0,0,1-.28-.1.7.7,0,0,1-.18-.14,1,1,0,0,1-.16-.21l-.48,1.27-.07.2-.1.29h-.91Zm2.33-3.68-.12.27-.13.33c0,.14-.09.24-.12.31a1.47,1.47,0,0,0-.07.34.5.5,0,0,0,0,.3.53.53,0,0,0,.21.21.74.74,0,0,0,.31.07,1,1,0,0,0,.48-.13,1.35,1.35,0,0,0,.43-.37,1.88,1.88,0,0,0,.28-.52,1,1,0,0,0,.06-.52.46.46,0,0,0-.21-.31.87.87,0,0,0-.42-.09,3.23,3.23,0,0,0-.75.11"/><path class="cls-6" d="M653.85,178.94c.08-.13.13-.23.16-.29s.07-.14.13-.25c.3-.06.57-.11.79-.13a4.93,4.93,0,0,1,.65,0,2.25,2.25,0,0,1,.61.08.62.62,0,0,1,.37.23.54.54,0,0,1,0,.47c0,.12-.15.4-.34.85s-.37.93-.54,1.41h-.89c.11-.23.23-.5.35-.81l.29-.73-.22.1-.16.06-.3.07-.35.09a1.06,1.06,0,0,0-.25.09,1.24,1.24,0,0,0-.2.1.89.89,0,0,0-.14.13.64.64,0,0,0-.08.14.29.29,0,0,0,0,.21.24.24,0,0,0,.15.13,1,1,0,0,0,.26,0h.22l.33-.08-.33.5-.37.05h-.24a1.66,1.66,0,0,1-.62-.1.45.45,0,0,1-.27-.32.83.83,0,0,1,0-.44.94.94,0,0,1,.13-.24,1,1,0,0,1,.22-.23,2,2,0,0,1,.3-.2,3.09,3.09,0,0,1,.48-.18c.2-.06.47-.12.78-.18l.27-.06.23-.06a.51.51,0,0,0,.16-.09.4.4,0,0,0,.12-.1.75.75,0,0,0,.07-.12.18.18,0,0,0,0-.19.29.29,0,0,0-.16-.12,1.14,1.14,0,0,0-.28,0,4.75,4.75,0,0,0-1.35.25"/><path class="cls-6" d="M656.29,181.27l.57-1.39.3-.8.18-.5.09-.28h.85l-.16.41a3.14,3.14,0,0,1,.29-.23,1,1,0,0,1,.23-.13,1.22,1.22,0,0,1,.27-.09l.27,0a1,1,0,0,1,.25,0c-.06.18-.13.42-.21.7a1,1,0,0,0-.32-.06,1.27,1.27,0,0,0-.34,0,1.24,1.24,0,0,0-.3.16,1.62,1.62,0,0,0-.28.25,2.25,2.25,0,0,0-.19.32c0,.11-.13.28-.22.52s-.19.49-.27.73c0,.09-.06.2-.11.34h-.9"/><path class="cls-6" d="M661.28,180.66l-.32.6-.44.07-.29,0a1.56,1.56,0,0,1-.4,0,.39.39,0,0,1-.25-.14.35.35,0,0,1-.08-.24,1,1,0,0,1,0-.29,1,1,0,0,0,0-.1c0-.05.07-.19.17-.42l.49-1.22h-.46c.05-.12.13-.3.22-.56h.48l.24-.58.39-.06.48-.1c-.11.26-.2.51-.28.74h.8a5.13,5.13,0,0,0-.21.56h-.8q-.48,1.2-.54,1.38a1,1,0,0,0-.06.28.2.2,0,0,0,.09.15.41.41,0,0,0,.19,0H661l.32-.07"/><path class="cls-6" d="M662.7,178.94l.15-.29.13-.25a7.72,7.72,0,0,1,.8-.13,4.78,4.78,0,0,1,.64,0,2.25,2.25,0,0,1,.61.08.62.62,0,0,1,.37.23.54.54,0,0,1,0,.47c0,.12-.15.4-.34.85s-.36.93-.54,1.41h-.88c.1-.23.22-.5.34-.81l.29-.73-.22.1-.16.06-.3.07-.35.09a1.06,1.06,0,0,0-.25.09.85.85,0,0,0-.19.1.6.6,0,0,0-.14.13.29.29,0,0,0-.08.14.25.25,0,0,0,0,.21.24.24,0,0,0,.15.13,1,1,0,0,0,.27,0h.21l.33-.08c-.08.12-.19.28-.32.5l-.37.05h-.25a1.66,1.66,0,0,1-.62-.1.5.5,0,0,1-.27-.32.83.83,0,0,1,0-.44.94.94,0,0,1,.13-.24,1,1,0,0,1,.22-.23,2,2,0,0,1,.3-.2,3.09,3.09,0,0,1,.48-.18c.21-.06.47-.12.79-.18l.27-.06.22-.06a.56.56,0,0,0,.17-.09.52.52,0,0,0,.11-.1.25.25,0,0,0,.07-.12.21.21,0,0,0,0-.19.31.31,0,0,0-.17-.12,1.12,1.12,0,0,0-.27,0,4.69,4.69,0,0,0-1.35.25"/><path class="cls-6" d="M665.12,181.27c.2-.44.41-.94.63-1.49s.41-1.05.56-1.48h.9l-.21.5.24-.21.24-.15.29-.11.31-.07a2,2,0,0,1,.35,0,1.7,1.7,0,0,1,.51.07.59.59,0,0,1,.34.21.5.5,0,0,1,.1.31,1.75,1.75,0,0,1-.07.36l-.1.25-.5,1.28c-.07.17-.14.36-.21.56h-.9l.36-.88c.17-.43.28-.7.32-.84a.66.66,0,0,0,.05-.37.32.32,0,0,0-.17-.22.67.67,0,0,0-.33-.07,1,1,0,0,0-.37.07,1.19,1.19,0,0,0-.35.19,1.64,1.64,0,0,0-.31.33,4.13,4.13,0,0,0-.33.67c-.12.28-.27.66-.44,1.12h-.91"/><polygon class="cls-7" points="668.04 182.62 649.8 182.62 650.01 182.04 668.25 182.04 668.04 182.62"/></g></g><rect class="cls-4" x="652.85" y="112.23" width="9.11" height="2.32" rx="1.16"/><path class="cls-8" d="M691.37,119.7H622.76a1.78,1.78,0,1,1,0-3.56h68.61a1.78,1.78,0,0,1,0,3.56Z"/><path class="cls-8" d="M622.76,188.31a1.78,1.78,0,0,1-1.78-1.78V117.92a1.79,1.79,0,0,1,3.57,0v68.61A1.79,1.79,0,0,1,622.76,188.31Z"/><rect class="cls-8" x="911.54" y="66.39" width="40.82" height="127.86"/><rect class="cls-8" x="839.63" y="66.39" width="40.82" height="127.86"/><path class="cls-8" d="M981.83,77.22H794.72a1.79,1.79,0,0,1,0-3.57H981.83a1.79,1.79,0,0,1,0,3.57Z"/><path class="cls-8" d="M794.72,179.38a1.78,1.78,0,0,1-1.78-1.78V75.43a1.78,1.78,0,1,1,3.56,0V177.6A1.78,1.78,0,0,1,794.72,179.38Z"/><path class="cls-2" d="M793.79,71.95h189a2.53,2.53,0,0,1,2.53,2.53V181.09a0,0,0,0,1,0,0h-194a0,0,0,0,1,0,0V74.48A2.53,2.53,0,0,1,793.79,71.95Z"/><path class="cls-4" d="M986.81,182.6H789.74V74.48a4.05,4.05,0,0,1,4-4h189a4.05,4.05,0,0,1,4,4Zm-194-3h191V74.48a1,1,0,0,0-1-1h-189a1,1,0,0,0-1,1Z"/><path class="cls-4" d="M779.79,179.57h217a0,0,0,0,1,0,0v7.35a2.68,2.68,0,0,1-2.68,2.68H782.47a2.68,2.68,0,0,1-2.68-2.68v-7.35A0,0,0,0,1,779.79,179.57Z"/><path class="cls-11" d="M873.53,181.59H903a0,0,0,0,1,0,0v2.68a1.27,1.27,0,0,1-1.27,1.27H874.81a1.27,1.27,0,0,1-1.27-1.27v-2.68A0,0,0,0,1,873.53,181.59Z"/><path d="M471.12,525.44H228.17a6.25,6.25,0,0,1-6.24-6.23V305.66a6.25,6.25,0,0,1,6.24-6.24h243a6.25,6.25,0,0,1,6.24,6.24V519.21A6.25,6.25,0,0,1,471.12,525.44ZM228.17,303a2.68,2.68,0,0,0-2.67,2.68V519.21a2.68,2.68,0,0,0,2.67,2.67h243a2.68,2.68,0,0,0,2.68-2.67V305.66a2.68,2.68,0,0,0-2.68-2.68Z"/><rect class="cls-8" x="473.68" y="418.71" width="6.24" height="10.57"/><path d="M384.51,433.34h19.91a1.34,1.34,0,1,1,0,2.67H384.51a1.34,1.34,0,0,1,0-2.67Z"/><path d="M384.51,433.34a1.35,1.35,0,0,1,.95.39l7,7a1.34,1.34,0,1,1-1.89,1.89l-7-7a1.34,1.34,0,0,1,0-1.89A1.33,1.33,0,0,1,384.51,433.34Z"/><path d="M391.47,426.38a1.34,1.34,0,0,1,.95,2.28l-7,7a1.34,1.34,0,0,1-1.89-1.89l7-7A1.33,1.33,0,0,1,391.47,426.38Z"/><rect class="cls-8" x="209.7" y="335.46" width="40.82" height="127.86"/><path class="cls-2" d="M180.21,341h189a2.53,2.53,0,0,1,2.53,2.53V450.16a0,0,0,0,1,0,0h-194a0,0,0,0,1,0,0V343.55A2.53,2.53,0,0,1,180.21,341Z"/><path class="cls-4" d="M373.22,451.68H176.16V343.55a4.05,4.05,0,0,1,4.05-4h189a4,4,0,0,1,4,4Zm-194-3h191V343.55a1,1,0,0,0-1-1h-189a1,1,0,0,0-1,1Z"/><path class="cls-4" d="M166.21,448.64h217a0,0,0,0,1,0,0V456a2.68,2.68,0,0,1-2.68,2.68H168.89a2.68,2.68,0,0,1-2.68-2.68v-7.35A0,0,0,0,1,166.21,448.64Z"/><path class="cls-11" d="M260,450.67h29.48a0,0,0,0,1,0,0v2.68a1.27,1.27,0,0,1-1.27,1.27H261.22a1.27,1.27,0,0,1-1.27-1.27v-2.68A0,0,0,0,1,260,450.67Z"/><path d="M738,456.23a40.71,40.71,0,0,0,20.42-5c4.87-2.77,7.76-5.95,10.55-9a41.15,41.15,0,0,1,9.61-8.44c7-4.25,15.44-6.13,25.21-5.58a1.78,1.78,0,0,0,.2-3.56c-10.51-.58-19.68,1.47-27.27,6.1a44.11,44.11,0,0,0-10.39,9.09c-2.72,3-5.29,5.83-9.67,8.31-7.08,4-16,5.35-26.39,3.95a1.79,1.79,0,0,0-.47,3.54A61.71,61.71,0,0,0,738,456.23Z"/><path d="M798.7,420.29h12.92a0,0,0,0,1,0,0v8.85a3.33,3.33,0,0,1-3.33,3.33H802a3.33,3.33,0,0,1-3.33-3.33v-8.85A0,0,0,0,1,798.7,420.29Z" transform="translate(1218.6 -385.5) rotate(89.08)"/><path d="M809.81,429.65h0l7.42-.12a.89.89,0,0,0,.88-.91.91.91,0,0,0-.9-.87l-7.43.12a.89.89,0,1,0,0,1.78Z"/><path d="M809.73,424.75h0l7.42-.12a.89.89,0,0,0,0-1.78h0l-7.43.12a.89.89,0,0,0,0,1.78Z"/><rect class="cls-2" x="839.13" y="412.64" width="26.31" height="50.02" rx="1.25"/><path d="M864,463.56H840.93a3.37,3.37,0,0,1-3.37-3.37V414.5a3.37,3.37,0,0,1,3.37-3.37H864a3.37,3.37,0,0,1,3.37,3.37v45.69A3.37,3.37,0,0,1,864,463.56Zm-23.11-50a.91.91,0,0,0-.91.91v45.69a.91.91,0,0,0,.91.91H864a.91.91,0,0,0,.91-.91V414.5a.91.91,0,0,0-.91-.91Z"/><line class="cls-3" x1="862.47" y1="415.41" x2="841.83" y2="415.41"/><line class="cls-3" x1="841.83" y1="415.41" x2="841.83" y2="459.07"/><path d="M849.43,427.06a.93.93,0,0,1-.93-.93v-3.95a.93.93,0,0,1,1.85,0v3.95A.93.93,0,0,1,849.43,427.06Z"/><path d="M855.55,427.06a.93.93,0,0,1-.93-.93v-3.95a.93.93,0,0,1,1.85,0v3.95A.93.93,0,0,1,855.55,427.06Z"/><path d="M851.72,430.41h1.72a.13.13,0,0,1,.13.13v1.21a.89.89,0,0,1-.89.89h-.19a.89.89,0,0,1-.89-.89v-1.21a.13.13,0,0,1,.13-.13Z" transform="translate(1705.16 863.04) rotate(180)"/><path d="M857.08,435.36h-9.19a4.19,4.19,0,0,1-4.18-4.19v-9.44a4.18,4.18,0,0,1,4.18-4.18h9.19a4.18,4.18,0,0,1,4.18,4.18v9.44A4.19,4.19,0,0,1,857.08,435.36Zm-9.19-16.58a3,3,0,0,0-2.95,3v9.44a3,3,0,0,0,2.95,3h9.19a3,3,0,0,0,2.95-3v-9.44a3,3,0,0,0-2.95-3Z"/><path d="M849.43,448.85a.93.93,0,0,1-.93-.93V444a.93.93,0,0,1,1.85,0v3.95A.93.93,0,0,1,849.43,448.85Z"/><path d="M855.55,448.85a.93.93,0,0,1-.93-.93V444a.93.93,0,0,1,1.85,0v3.95A.93.93,0,0,1,855.55,448.85Z"/><path d="M851.72,452.2h1.72a.13.13,0,0,1,.13.13v1.21a.89.89,0,0,1-.89.89h-.19a.89.89,0,0,1-.89-.89v-1.21a.13.13,0,0,1,.13-.13Z" transform="translate(1705.16 906.63) rotate(180)"/><path d="M857.08,457.15h-9.19a4.19,4.19,0,0,1-4.18-4.19v-9.44a4.19,4.19,0,0,1,4.18-4.18h9.19a4.18,4.18,0,0,1,4.18,4.18V453A4.19,4.19,0,0,1,857.08,457.15Zm-9.19-16.58a3,3,0,0,0-2.95,2.95V453a3,3,0,0,0,2.95,3h9.19a3,3,0,0,0,2.95-3v-9.44a3,3,0,0,0-2.95-2.95Z"/><path d="M834.68,400.89h-19.9a1.34,1.34,0,1,1,0-2.67h19.9a1.34,1.34,0,1,1,0,2.67Z"/><path d="M834.68,400.89a1.33,1.33,0,0,1-.94-.39l-7-7a1.34,1.34,0,1,1,1.89-1.89l7,7a1.34,1.34,0,0,1-1,2.28Z"/><path d="M827.72,407.85a1.33,1.33,0,0,1-.94-.39,1.34,1.34,0,0,1,0-1.89l7-7a1.34,1.34,0,0,1,1.89,1.89l-7,7A1.33,1.33,0,0,1,827.72,407.85Z"/><rect class="cls-8" x="560.79" y="335.46" width="40.82" height="127.86"/><path class="cls-8" d="M723.22,346.29H536.12a1.78,1.78,0,1,1,0-3.56h187.1a1.78,1.78,0,1,1,0,3.56Z"/><path class="cls-8" d="M536.12,448.46a1.79,1.79,0,0,1-1.79-1.78V344.51a1.79,1.79,0,0,1,3.57,0V446.68A1.78,1.78,0,0,1,536.12,448.46Z"/><path class="cls-2" d="M535.19,341h189a2.53,2.53,0,0,1,2.53,2.53V450.16a0,0,0,0,1,0,0h-194a0,0,0,0,1,0,0V343.55A2.53,2.53,0,0,1,535.19,341Z"/><path class="cls-4" d="M728.2,451.68H531.14V343.55a4,4,0,0,1,4.05-4h189a4.05,4.05,0,0,1,4.05,4Zm-194-3h191V343.55a1,1,0,0,0-1-1h-189a1,1,0,0,0-1,1Z"/><path class="cls-4" d="M521.19,448.64h217a0,0,0,0,1,0,0V456a2.68,2.68,0,0,1-2.68,2.68H523.86a2.68,2.68,0,0,1-2.68-2.68v-7.35A0,0,0,0,1,521.19,448.64Z"/><path class="cls-11" d="M614.93,450.67h29.48a0,0,0,0,1,0,0v2.68a1.27,1.27,0,0,1-1.27,1.27H616.2a1.27,1.27,0,0,1-1.27-1.27v-2.68A0,0,0,0,1,614.93,450.67Z"/><path d="M437.11,452.39a36,36,0,0,0,5.91-2.91c4.77-2.93,7.55-6.21,10.23-9.37a41.18,41.18,0,0,1,9.31-8.77c6.81-4.48,15.23-6.64,25-6.44a1.78,1.78,0,1,0,.08-3.56c-10.52-.22-19.62,2.14-27,7a44.65,44.65,0,0,0-10.08,9.44c-2.62,3.09-5.09,6-9.38,8.65-6.94,4.26-15.76,5.89-26.24,4.85a1.78,1.78,0,1,0-.35,3.55C423.08,455.69,430.64,454.87,437.11,452.39Z"/><path d="M406.06,454.52a.29.29,0,0,1-.27-.29l.15-3.65a.28.28,0,0,1,.28-.27l8.56.34a.31.31,0,0,1,.2.09.24.24,0,0,1,.07.2l-.14,3.66a.28.28,0,0,1-.28.27Z"/><path d="M407.39,451.85l6.12.25-.05,1.22-6.12-.25.05-1.22m-1.17-3a1.78,1.78,0,0,0-1.78,1.71l-.14,3.65A1.78,1.78,0,0,0,406,456l8.55.35h.08a1.78,1.78,0,0,0,1.78-1.71l.14-3.66a1.78,1.78,0,0,0-1.71-1.85l-8.54-.34Z"/><path class="cls-8" d="M368.25,346.29H181.14a1.78,1.78,0,1,1,0-3.56H368.25a1.78,1.78,0,0,1,0,3.56Z"/><path class="cls-8" d="M181.14,448.46a1.78,1.78,0,0,1-1.78-1.78V344.51a1.78,1.78,0,0,1,3.56,0V446.68A1.78,1.78,0,0,1,181.14,448.46Z"/><path class="cls-8" d="M723.22,346.29H536.12a1.78,1.78,0,1,1,0-3.56h187.1a1.78,1.78,0,1,1,0,3.56Z"/><path class="cls-8" d="M536.12,448.46a1.79,1.79,0,0,1-1.79-1.78V344.51a1.79,1.79,0,0,1,3.57,0V446.68A1.78,1.78,0,0,1,536.12,448.46Z"/><path class="cls-8" d="M981.83,77.24H794.72a1.78,1.78,0,1,1,0-3.56H981.83a1.78,1.78,0,0,1,0,3.56Z"/><path class="cls-8" d="M794.72,179.41a1.78,1.78,0,0,1-1.78-1.78V75.46a1.78,1.78,0,0,1,3.56,0V177.63A1.78,1.78,0,0,1,794.72,179.41Z"/><circle class="cls-12" cx="74.02" cy="32.53" r="25.61"/><text class="cls-13" transform="translate(65.14 42.74)">1</text><circle class="cls-12" cx="349.02" cy="32.53" r="25.61"/><text class="cls-13" transform="translate(340.15 42.74)">2</text><circle class="cls-12" cx="631.82" cy="32.53" r="25.61"/><text class="cls-13" transform="translate(622.94 42.74)">3</text><circle class="cls-12" cx="223.91" cy="300.98" r="25.61"/><text class="cls-13" transform="translate(215.03 311.2)">4</text><circle class="cls-12" cx="580.2" cy="300.98" r="25.61"/><text class="cls-13" transform="translate(571.32 311.2)">5</text></svg>