<svg xmlns="http://www.w3.org/2000/svg" viewBox="0 0 100 80"><defs><style>.a{fill:#22cb67;}.b{fill:none;stroke:#22cb67;stroke-miterlimit:10;stroke-width:2px;}</style></defs><path class="a" d="M98,2V78H2V2H98m2-2H0V80H100Z"/><line class="b" x1="100" transform="translate(0 20)"/><line class="b" x2="12" transform="translate(19 50)"/><line class="b" y1="10.4" x2="6" transform="translate(22 44.8)"/><line class="b" x1="6" y1="10.4" transform="translate(22 44.8)"/><line class="b" x2="12" transform="translate(69 50)"/><line class="b" y1="10.4" x2="6" transform="translate(72 44.8)"/><line class="b" x1="6" y1="10.4" transform="translate(72 44.8)"/><line class="b" x2="12" transform="translate(35.67 50)"/><line class="b" y1="10.4" x2="6" transform="translate(38.67 44.8)"/><line class="b" x1="6" y1="10.4" transform="translate(38.67 44.8)"/><line class="b" x2="12" transform="translate(52.33 50)"/><line class="b" y1="10.4" x2="6" transform="translate(55.33 44.8)"/><line class="b" x1="6" y1="10.4" transform="translate(55.33 44.8)"/><circle class="a" cx="3.5" cy="3.5" r="3.5" transform="translate(8.5 7.5)"/><circle class="a" cx="3.5" cy="3.5" r="3.5" transform="translate(21.5 7.5)"/><circle class="a" cx="3.5" cy="3.5" r="3.5" transform="translate(34.5 7.5)"/></svg>