<svg xmlns="http://www.w3.org/2000/svg" viewBox="0 0 103.904 77"><defs><style>.a,.d{fill:none;}.a,.b,.d{stroke:#23cc66;stroke-width:2px;}.a{stroke-miterlimit:10;}.b{fill:#fff;}.c{fill:#23cc66;}</style></defs><g transform="translate(1 1)"><rect class="a" width="94.01" height="11.53" transform="translate(0 53.705)"/><rect class="a" width="84.453" height="53.705" transform="translate(4.778)"/></g><g transform="translate(62.704 35.799)"><path class="b" d="M63.412,34.5H97.588a3.015,3.015,0,0,1,3.012,3.012V71.688A3.015,3.015,0,0,1,97.588,74.7H63.412A3.015,3.015,0,0,1,60.4,71.688V37.512A3.015,3.015,0,0,1,63.412,34.5Z" transform="translate(-60.4 -34.5)"/><path class="c" d="M78.131,68.4h3.324a.894.894,0,0,1,.831.831h0a.819.819,0,0,1-.831.831H78.131a.894.894,0,0,1-.831-.831h0C77.4,68.712,77.716,68.4,78.131,68.4Z" transform="translate(-59.745 -33.185)"/><path class="d" d="M70.066,42.4H90.218a1.82,1.82,0,0,1,1.766,1.766V64.318a1.82,1.82,0,0,1-1.766,1.766H70.066A1.82,1.82,0,0,1,68.3,64.318V44.166A1.751,1.751,0,0,1,70.066,42.4Z" transform="translate(-60.094 -34.194)"/></g></svg>